<svg width="65" height="64" viewBox="0 0 65 64" fill="none" xmlns="http://www.w3.org/2000/svg">
<path fill-rule="evenodd" clip-rule="evenodd" d="M55.5657 17.987C60.5327 17.987 64.5592 13.9604 64.5592 8.99348C64.5592 4.02652 60.5327 0 55.5657 0C50.5988 0 46.5723 4.02652 46.5723 8.99348C46.5723 13.9604 50.5988 17.987 55.5657 17.987Z" fill="#8055FA"/>
<path fill-rule="evenodd" clip-rule="evenodd" d="M55.5653 40.5745C60.5322 40.5745 64.5587 36.5481 64.5587 31.5813C64.5587 26.6145 60.5322 22.5881 55.5653 22.5881C50.5983 22.5881 46.5718 26.6145 46.5718 31.5813C46.5718 36.5481 50.5983 40.5745 55.5653 40.5745Z" fill="#7550FB"/>
<path fill-rule="evenodd" clip-rule="evenodd" d="M55.5653 64C60.5322 64 64.5587 59.9735 64.5587 55.0065C64.5587 50.0395 60.5322 46.013 55.5653 46.013C50.5983 46.013 46.5718 50.0395 46.5718 55.0065C46.5718 59.9735 50.5983 64 55.5653 64Z" fill="#6A4AFC"/>
<path fill-rule="evenodd" clip-rule="evenodd" d="M32.1409 40.5745C37.1077 40.5745 41.1341 36.5481 41.1341 31.5813C41.1341 26.6145 37.1077 22.5881 32.1409 22.5881C27.1741 22.5881 23.1477 26.6145 23.1477 31.5813C23.1477 36.5481 27.1741 40.5745 32.1409 40.5745Z" fill="#456DFD"/>
<path fill-rule="evenodd" clip-rule="evenodd" d="M32.1407 64C37.1075 64 41.1339 59.9735 41.1339 55.0065C41.1339 50.0395 37.1075 46.013 32.1407 46.013C27.1739 46.013 23.1475 50.0395 23.1475 55.0065C23.1475 59.9735 27.1739 64 32.1407 64Z" fill="#3F47FE"/>
<path fill-rule="evenodd" clip-rule="evenodd" d="M9.55183 64C14.5188 64 18.5453 59.9735 18.5453 55.0065C18.5453 50.0395 14.5188 46.013 9.55183 46.013C4.58487 46.013 0.55835 50.0395 0.55835 55.0065C0.55835 59.9735 4.58487 64 9.55183 64Z" fill="#3A71FF"/>
</svg>
