<svg width="94" height="48" viewBox="0 0 94 48" fill="none" xmlns="http://www.w3.org/2000/svg">
<rect width="94" height="48" rx="24" fill="white"/>
<rect x="0.75" y="0.75" width="92.5" height="46.5" rx="23.25" stroke="#A0A0A0" stroke-opacity="0.2" stroke-width="1.5"/>
<path d="M57.3312 17.7934C56.488 18.3097 55.7895 19.0314 55.3012 19.8911C54.8128 20.7509 54.5506 21.7204 54.539 22.7091C54.5423 23.8218 54.872 24.9091 55.4872 25.8364C56.1024 26.7636 56.9761 27.49 58 27.9256C57.5963 29.2281 56.9988 30.4625 56.2277 31.5871C55.1242 33.1756 53.9705 34.7639 52.215 34.7639C50.4595 34.7639 50.008 33.744 47.9849 33.744C46.0119 33.744 45.3097 34.7974 43.7046 34.7974C42.0994 34.7974 40.9793 33.326 39.6919 31.5203C37.9912 28.9907 37.0565 26.0241 37 22.9765C37 17.9606 40.2604 15.3023 43.4705 15.3023C45.1759 15.3023 46.5972 16.4224 47.6672 16.4224C48.6871 16.4224 50.2756 15.2352 52.215 15.2352C53.2121 15.2095 54.2003 15.4294 55.0925 15.8755C55.9847 16.3216 56.7535 16.9802 57.3312 17.7934ZM51.2954 13.1119C52.1504 12.1062 52.6343 10.8376 52.6665 9.51804C52.6679 9.34408 52.6511 9.17045 52.6163 9C51.1477 9.14345 49.7897 9.84339 48.8208 10.9562C47.9577 11.9219 47.4555 13.1566 47.3996 14.4506C47.4003 14.6079 47.4171 14.7648 47.4498 14.9188C47.5656 14.9406 47.6831 14.9519 47.8009 14.9523C48.4778 14.8984 49.1365 14.7075 49.7373 14.3911C50.338 14.0748 50.8681 13.6395 51.2954 13.1119Z" fill="black"/>
</svg>
