<svg width="94" height="48" viewBox="0 0 94 48" fill="none" xmlns="http://www.w3.org/2000/svg">
<rect width="94" height="48" rx="24" fill="white"/>
<rect x="0.75" y="0.75" width="92.5" height="46.5" rx="23.25" stroke="#A0A0A0" stroke-opacity="0.2" stroke-width="1.5"/>
<path d="M61 23.8613C61 30.8622 55.9456 36.6498 49.38 37.5893C48.7659 37.6771 48.1378 37.7226 47.5004 37.7226C46.7642 37.7226 46.0421 37.6619 45.3378 37.5454C38.909 36.483 34 30.7608 34 23.8613C34 16.2059 40.044 10 47.4996 10C54.9553 10 60.9992 16.2059 60.9992 23.8613H61Z" fill="#1877F7"/>
<path d="M49.38 21.1291V24.1487H53.0181L52.4421 28.217H49.38V37.5893C48.7659 37.6771 48.1378 37.7226 47.5004 37.7226C46.7642 37.7226 46.0421 37.6619 45.3378 37.5454V28.217H41.9827V24.1487H45.3378V20.4546C45.3378 18.1623 47.1475 16.3033 49.3808 16.3033V16.3057C49.387 16.3057 49.3933 16.3033 49.3995 16.3033H53.0189V19.8209H50.6541C49.9506 19.8209 49.3808 20.406 49.3808 21.1283L49.38 21.1291Z" fill="white"/>
</svg>
