<svg width="94" height="48" viewBox="0 0 94 48" fill="none" xmlns="http://www.w3.org/2000/svg">
<rect width="94" height="48" rx="24" fill="white"/>
<rect x="0.75" y="0.75" width="92.5" height="46.5" rx="23.25" stroke="#A0A0A0" stroke-opacity="0.2" stroke-width="1.5"/>
<rect width="24" height="24" transform="translate(35 12)" fill="white"/>
<path fill-rule="evenodd" clip-rule="evenodd" d="M58.04 24.2614C58.04 23.4459 57.9668 22.6618 57.8309 21.9091H47V26.3575H53.1891C52.9225 27.795 52.1123 29.013 50.8943 29.8284V32.7139H54.6109C56.7855 30.7118 58.04 27.7636 58.04 24.2614Z" fill="#4285F4"/>
<path fill-rule="evenodd" clip-rule="evenodd" d="M46.9999 35.4998C50.1049 35.4998 52.7081 34.4701 54.6108 32.7137L50.8942 29.8282C49.8645 30.5182 48.5472 30.926 46.9999 30.926C44.0047 30.926 41.4695 28.903 40.5651 26.1848H36.7231V29.1644C38.6154 32.9228 42.5045 35.4998 46.9999 35.4998Z" fill="#34A853"/>
<path fill-rule="evenodd" clip-rule="evenodd" d="M40.5652 26.1851C40.3352 25.4951 40.2045 24.758 40.2045 24.0001C40.2045 23.2421 40.3352 22.5051 40.5652 21.8151V18.8355H36.7232C35.9443 20.388 35.5 22.1444 35.5 24.0001C35.5 25.8557 35.9443 27.6121 36.7232 29.1646L40.5652 26.1851Z" fill="#FBBC05"/>
<path fill-rule="evenodd" clip-rule="evenodd" d="M46.9999 17.0739C48.6883 17.0739 50.2042 17.6541 51.3961 18.7936L54.6945 15.4952C52.7029 13.6395 50.0997 12.5 46.9999 12.5C42.5045 12.5 38.6154 15.077 36.7231 18.8355L40.5651 21.815C41.4695 19.0968 44.0047 17.0739 46.9999 17.0739Z" fill="#EA4335"/>
</svg>
